<?xml version="1.0" encoding="iso-8859-1"?>
<!-- Uploaded to: SVG Repo, www.svgrepo.com, Generator: SVG Repo Mixer Tools -->
<svg version="1.1" id="Layer_1" xmlns="http://www.w3.org/2000/svg" xmlns:xlink="http://www.w3.org/1999/xlink" 
	 viewBox="0 0 512 512" xml:space="preserve">
<circle style="fill:#D7F3FF;" cx="256.003" cy="256.004" r="249.99"/>
<path style="fill:#999999;" d="M294.787,457.525l33.876,37.737c-22.993,6.975-47.393,10.727-72.659,10.727
	c-25.278,0-49.678-3.752-72.671-10.727l33.888-37.737H294.787z"/>
<path style="fill:#CCCCCC;" d="M434.802,430.696c-29.006,29.703-65.372,52.204-106.139,64.566l-33.876-37.737h-77.566
	l-33.888,37.737C142.566,482.9,106.2,460.4,77.194,430.696H434.802z"/>
<g>
	<path style="fill:#E6E6E6;" d="M432.926,412.682l7.793,11.737c-1.924,2.129-3.908,4.221-5.917,6.277H77.194
		c-2.008-2.056-3.981-4.149-5.917-6.265l7.516-11.304l0.89,0.589h351.691L432.926,412.682z"/>
	<polygon style="fill:#E6E6E6;" points="116.145,396.736 135.988,396.736 159.474,396.736 180.074,396.736 205.16,396.736 
		225.363,396.736 245.025,396.736 267.669,396.736 287.331,396.736 307.534,396.736 332.62,396.736 353.22,396.736 376.706,396.736 
		396.548,396.736 416.716,396.736 422.332,396.736 427.082,403.879 432.926,412.682 431.375,413.716 79.683,413.716 78.794,413.127 
		89.677,396.736 95.978,396.736 	"/>
</g>
<g>
	<path style="fill:#DDA36F;" d="M66.996,204.866c6.578,0,11.917,5.339,11.917,11.917c0,6.578-5.339,11.917-11.917,11.917
		s-11.917-5.339-11.917-11.917C55.079,210.205,60.418,204.866,66.996,204.866z"/>
	<path style="fill:#DDA36F;" d="M445,204.866c6.59,0,11.917,5.339,11.917,11.917c0,6.578-5.327,11.917-11.917,11.917
		c-6.578,0-11.905-5.339-11.905-11.917C433.095,210.205,438.422,204.866,445,204.866z"/>
	<polygon style="fill:#DDA36F;" points="266.996,88.349 266.996,90.525 245.698,90.525 245.698,88.349 256.341,48.88 	"/>
</g>
<path style="fill:#F9DCC0;" d="M271.253,90.525v26.144c-4.882-1.118-9.969-1.708-15.188-1.708c-0.168,0-0.349,0-0.517,0.012
	c-0.024-0.012-0.036-0.012-0.06,0c-0.048-0.012-0.084-0.012-0.132-0.012c-0.072,0-0.132,0-0.204,0.012
	c-4.906,0.06-9.681,0.637-14.287,1.696V90.525h4.834h21.297C266.996,90.525,271.253,90.525,271.253,90.525z"/>
<rect x="245.024" y="366.351" style="fill:#666666;" width="22.644" height="30.389"/>
<g>
	<path style="fill:#4D4D4D;" d="M95.978,336.523v60.213h-6.301l-10.883,16.391l-7.516,11.304
		c-4.822-5.291-9.428-10.787-13.793-16.475v-71.433c0-10.631,8.61-19.241,19.241-19.241
		C87.368,317.282,95.978,325.892,95.978,336.523z"/>
	<path style="fill:#4D4D4D;" d="M455.21,336.523v70.507c-4.57,6.013-9.404,11.821-14.491,17.389l-7.793-11.737l-5.844-8.803
		l-4.75-7.143h-5.616v-2.934v-57.278c0-10.631,8.61-19.241,19.241-19.241C446.599,317.282,455.21,325.892,455.21,336.523z"/>
</g>
<g>
	<polygon style="fill:#F4C290;" points="231.724,228.7 207.432,228.7 188.131,228.7 188.131,182.883 213.758,182.883 
		240.034,182.883 256.004,182.883 256.004,228.7 	"/>
	<polygon style="fill:#F4C290;" points="280.284,228.7 256.004,228.7 256.004,182.883 270.688,182.883 298.371,182.883 
		323.865,182.883 323.865,228.7 304.564,228.7 	"/>
</g>
<g>
	<path style="fill:#86AEBF;" d="M323.985,182.883h-0.12h-25.494c0-37.508-18.94-67.921-42.306-67.921
		c5.219,0,10.306,0.589,15.188,1.708C301.449,123.572,323.985,150.594,323.985,182.883z"/>
	<path style="fill:#86AEBF;" d="M298.371,182.883h-27.683c0-37.22-6.758-67.464-15.14-67.909c0.168-0.012,0.349-0.012,0.517-0.012
		C279.43,114.961,298.371,145.374,298.371,182.883z"/>
	<path style="fill:#86AEBF;" d="M270.688,182.883h-14.683h-15.97c0-36.907,6.638-66.935,14.912-67.897c0.012,0,0.012,0,0.024,0
		c0.168-0.012,0.349-0.012,0.517-0.012c0.024-0.012,0.036-0.012,0.06,0C263.929,115.418,270.688,145.663,270.688,182.883z"/>
	<path style="fill:#86AEBF;" d="M254.946,114.985c-8.274,0.962-14.912,30.99-14.912,67.897h-26.276
		C213.758,145.976,232.097,115.936,254.946,114.985z"/>
	<path style="fill:#86AEBF;" d="M255.15,114.973c-0.06,0-0.12,0-0.18,0.012c-0.012,0-0.012,0-0.024,0
		c-22.849,0.95-41.188,30.99-41.188,67.897h-25.627c0-32.289,22.536-59.311,52.733-66.213
		C245.47,115.611,250.244,115.034,255.15,114.973z"/>
</g>
<path style="fill:#DDA36F;" d="M474.379,286.496v91.263c-5.712,10.222-12.122,19.999-19.169,29.271v-70.507
	c0-10.631-8.61-19.241-19.253-19.241c-10.631,0-19.241,8.61-19.241,19.241v57.278v2.934h-20.167v-110.24L474.379,286.496
	L474.379,286.496z"/>
<polygon style="fill:#F4C290;" points="135.988,286.496 116.145,286.496 37.618,286.496 37.618,267.435 187.494,267.435 
	325.2,267.435 474.379,267.435 474.379,286.496 396.548,286.496 376.706,286.496 353.22,286.496 332.62,286.496 307.534,286.496 
	287.331,286.496 225.363,286.496 205.16,286.496 180.074,286.496 159.474,286.496 "/>
<polygon style="fill:#F9DCC0;" points="474.379,228.7 474.379,267.435 325.2,267.435 256.341,244.165 187.494,267.435 
	37.618,267.435 37.618,228.7 66.996,228.7 96.375,228.7 109.772,228.7 159.835,228.7 173.231,228.7 188.131,228.7 207.432,228.7 
	231.724,228.7 256.004,228.7 280.284,228.7 304.564,228.7 323.865,228.7 338.765,228.7 352.174,228.7 402.225,228.7 415.633,228.7 
	445,228.7 "/>
<path style="fill:#86AEBF;" d="M402.225,228.7h-50.051c0-13.818,11.208-25.025,25.025-25.025S402.225,214.883,402.225,228.7z"/>
<rect x="376.705" y="286.501" style="fill:#F9D6B7;" width="19.842" height="110.24"/>
<rect x="353.219" y="286.501" style="fill:#DDA36F;" width="23.486" height="110.24"/>
<rect x="332.619" y="286.501" style="fill:#F9D6B7;" width="20.6" height="110.24"/>
<rect x="307.533" y="286.501" style="fill:#DDA36F;" width="25.086" height="110.24"/>
<polygon style="fill:#F4C290;" points="325.2,267.435 187.494,267.435 256.341,244.165 "/>
<rect x="287.33" y="286.501" style="fill:#F9D6B7;" width="20.203" height="110.24"/>
<polygon style="fill:#DDA36F;" points="287.331,286.496 287.331,396.736 267.669,396.736 267.669,366.347 245.025,366.347 
	245.025,396.736 225.363,396.736 225.363,286.496 "/>
<rect x="205.158" y="286.501" style="fill:#F9D6B7;" width="20.203" height="110.24"/>
<rect x="180.073" y="286.501" style="fill:#DDA36F;" width="25.086" height="110.24"/>
<rect x="159.473" y="286.501" style="fill:#F9D6B7;" width="20.6" height="110.24"/>
<path style="fill:#86AEBF;" d="M159.835,228.7h-50.063c0-13.818,11.208-25.025,25.025-25.025
	C148.627,203.675,159.835,214.883,159.835,228.7z"/>
<rect x="135.987" y="286.501" style="fill:#DDA36F;" width="23.486" height="110.24"/>
<rect x="116.144" y="286.501" style="fill:#F9D6B7;" width="19.842" height="110.24"/>
<path style="fill:#DDA36F;" d="M116.145,286.496v110.24H95.978v-60.213c0-10.631-8.61-19.241-19.253-19.241
	c-10.631,0-19.241,8.61-19.241,19.241v71.433c-7.312-9.548-13.962-19.638-19.866-30.197v-91.263L116.145,286.496L116.145,286.496z"
	/>
<g>
	<path style="fill:#333333;" d="M256.001,0.001C114.842,0.001,0,114.841,0,256s114.842,255.999,256.001,255.999S512,397.159,512,256
		S397.159,0.001,256.001,0.001z M256.001,12.026c134.528,0,243.974,109.446,243.974,243.974c0,33.968-6.986,66.331-19.583,95.743
		l0.004-151.046c0-3.32-2.691-6.013-6.013-6.013c-3.321,0-6.013,2.693-6.013,6.013v21.993h-6.452c0.648-1.852,1.02-3.834,1.02-5.903
		c0-9.886-8.043-17.93-17.93-17.93s-17.93,8.043-17.93,17.93c0,2.071,0.37,4.051,1.02,5.903h-6.452v-21.993
		c0-3.32-2.691-6.013-6.013-6.013c-3.321,0-6.013,2.693-6.013,6.013v21.993h-1.971c-2.424-12.3-12.136-22.012-24.436-24.436v-17.815
		c0-3.32-2.691-6.013-6.013-6.013c-3.322,0-6.013,2.693-6.013,6.013v17.815c-12.3,2.424-22.011,12.136-24.435,24.436h-1.971v-11.795
		c0-3.32-2.691-6.013-6.013-6.013c-3.321,0-6.013,2.693-6.013,6.013v11.795h-2.751c0,0,0-39.393,0-39.8
		c0-33.401-22.268-61.686-52.734-70.825V90.53c0-2.99-2.187-5.451-5.047-5.915l-10.069-37.301c-0.708-2.624-3.087-4.446-5.805-4.446
		c-2.718,0-5.097,1.822-5.805,4.446L240.49,84.556c-3.142,0.198-5.636,2.783-5.636,5.974v21.532
		c-30.466,9.14-52.734,37.425-52.734,70.827v39.8h-2.871v-11.795c0-3.32-2.691-6.013-6.013-6.013c-3.322,0-6.013,2.693-6.013,6.013
		v11.795h-1.971c-2.424-12.3-12.136-22.012-24.436-24.436v-17.815c0-3.32-2.691-6.013-6.013-6.013c-3.321,0-6.013,2.693-6.013,6.013
		v17.815c-12.3,2.424-22.012,12.136-24.436,24.436h-1.971v-21.993c0-3.32-2.691-6.013-6.013-6.013c-3.321,0-6.013,2.693-6.013,6.013
		v21.993h-6.452c0.648-1.852,1.02-3.834,1.02-5.903c0-9.886-8.043-17.93-17.929-17.93c-9.888,0-17.93,8.043-17.93,17.93
		c0,2.071,0.37,4.051,1.02,5.903h-6.452v-21.993c0-3.32-2.691-6.013-6.013-6.013s-6.013,2.693-6.013,6.013l-0.001,151.038
		C19.01,322.325,12.026,289.964,12.026,256C12.026,121.472,121.473,12.026,256.001,12.026z M432.099,424.683H79.901
		c-0.31-0.323-0.618-0.648-0.926-0.974l2.646-3.983h348.763l2.643,3.979C432.718,424.034,432.41,424.36,432.099,424.683z
		 M419.744,436.709c-25.448,23.08-55.778,40.86-89.229,51.613l-31.252-34.813c-1.14-1.27-2.767-1.996-4.475-1.996h-77.566
		c-1.706,0-3.332,0.725-4.474,1.995l-31.263,34.813c-33.451-10.755-63.781-28.533-89.227-51.613h327.486V436.709z M61.091,216.784
		c0-3.255,2.649-5.905,5.905-5.905c3.255,0,5.903,2.649,5.903,5.905c0,3.254-2.647,5.902-5.901,5.903h-0.006
		C63.739,222.686,61.091,220.04,61.091,216.784z M468.366,234.715v26.705H326.187l-67.915-22.951c-1.247-0.422-2.602-0.422-3.849,0
		l-67.916,22.951H43.63v-26.705H468.366z M134.803,209.688c8.384,0,15.517,5.454,18.04,13h-36.079
		C119.286,215.141,126.419,209.688,134.803,209.688z M246.878,96.543h18.364v12.995c-3.011-0.375-6.072-0.59-9.183-0.59
		c-0.17,0-6.542,0.262-9.182,0.59V96.543z M252.954,84.517l3.392-12.566l3.391,12.566H252.954z M310.576,222.689v-20.137
		c0-3.32-2.691-6.013-6.013-6.013c-3.322,0-6.013,2.693-6.013,6.013v20.137h-12.255v-20.137c0-3.32-2.691-6.013-6.013-6.013
		c-3.321,0-6.013,2.693-6.013,6.013v20.137h-12.254v-33.787h55.842v33.787H310.576z M276.635,176.876
		c-0.315-16.32-1.91-31.531-4.575-43.343c-0.629-2.785-1.304-5.3-2.019-7.595c11.925,8.784,20.78,28.292,22.13,50.938H276.635z
		 M240.218,127.426c-0.548,1.887-1.07,3.917-1.565,6.107c-2.665,11.81-4.26,27.023-4.575,43.343h-14.13
		C221.226,155.424,229.242,136.799,240.218,127.426z M255.357,121.865c3.443,5.032,8.652,23.772,9.255,55.01h-18.51
		C246.705,145.638,251.914,126.896,255.357,121.865z M304.213,176.876c-0.877-17.404-5.522-32.934-12.734-44.738
		c14.458,10.121,24.417,26.25,26.206,44.738H304.213z M207.907,176.876h-13.472c1.788-18.488,11.747-34.617,26.205-44.738
		C213.428,143.942,208.783,159.472,207.907,176.876z M194.144,188.901h55.844v33.787h-12.255v-20.137
		c0-3.32-2.691-6.013-6.013-6.013s-6.013,2.693-6.013,6.013v20.137h-12.255v-20.137c0-3.32-2.691-6.013-6.013-6.013
		s-6.013,2.693-6.013,6.013v20.137h-7.28v-33.787H194.144z M377.197,209.688c8.384,0,15.517,5.454,18.04,13h-36.078
		C361.681,215.141,368.815,209.688,377.197,209.688z M439.101,216.784c0-3.255,2.649-5.905,5.905-5.905
		c3.255,0,5.905,2.649,5.905,5.905c0,3.254-2.648,5.902-5.902,5.903h-0.006C441.749,222.686,439.101,220.04,439.101,216.784z
		 M468.366,280.487H43.63v-7.041h424.734v7.041H468.366z M419.109,402.748l3.289,4.953H89.611l3.29-4.953H419.109z M129.97,292.512
		v98.211h-7.814v-98.211H129.97L129.97,292.512z M359.228,390.723v-98.211h11.469v98.211H359.228z M347.202,390.723h-8.573v-98.211
		h8.573V390.723z M326.603,390.723h-13.053v-98.211h13.053V390.723z M301.524,390.723h-8.181v-98.211h8.181V390.723z
		 M281.318,390.723h-7.639v-24.379c0-3.32-2.691-6.013-6.013-6.013h-22.642c-3.321,0-6.013,2.693-6.013,6.013v24.379h-7.638v-98.211
		h49.943v98.211H281.318z M261.654,390.723h-10.616v-18.366h10.616V390.723z M219.349,390.723h-8.181v-98.211h8.181V390.723z
		 M199.143,390.723H186.09v-98.211h13.053V390.723z M174.064,390.723h-8.572v-98.211h8.572V390.723z M153.466,390.723h-11.47
		v-98.211h11.47V390.723z M382.723,390.723v-98.211h7.814v98.211H382.723z M224.068,261.419l32.279-10.909l32.278,10.909H224.068z
		 M43.63,292.512h66.5v98.211h-8.14v-54.2c0-13.925-11.334-25.254-25.266-25.254c-13.925,0-25.254,11.329-25.254,25.254v52.332
		c-2.742-4.205-5.356-8.5-7.841-12.878v-83.466H43.63z M63.497,336.523c0-7.294,5.935-13.228,13.228-13.228
		c7.3,0,13.24,5.935,13.24,13.228v54.2h-0.287c-2.014,0-3.894,1.008-5.009,2.685l-14.002,21.074c-2.456-2.867-4.848-5.79-7.171-8.77
		V336.523z M427.338,393.407c-1.04-1.565-2.749-2.535-4.609-2.659v-54.225c0-7.294,5.935-13.228,13.228-13.228
		c7.301,0,13.241,5.935,13.241,13.228v68.284c-2.541,3.291-5.16,6.517-7.862,9.672L427.338,393.407z M435.957,311.269
		c-13.925,0-25.254,11.329-25.254,25.254v54.2h-8.14v-98.211h65.803v83.472c-2.274,4.009-4.652,7.954-7.142,11.819v-51.279
		C461.223,322.598,449.887,311.269,435.957,311.269z M194.29,492.061l25.614-28.523h72.201l25.605,28.523
		c-19.717,5.158-40.397,7.913-61.709,7.913C234.687,499.975,214.008,497.22,194.29,492.061z"/>
	<path style="fill:#333333;" d="M114.831,254.378h10.725c3.322,0,6.013-2.693,6.013-6.013c0-3.32-2.691-6.013-6.013-6.013h-10.725
		c-3.322,0-6.013,2.693-6.013,6.013C108.818,251.685,111.511,254.378,114.831,254.378z"/>
	<path style="fill:#333333;" d="M67.759,254.378h10.725c3.322,0,6.013-2.693,6.013-6.013c0-3.32-2.691-6.013-6.013-6.013H67.759
		c-3.322,0-6.013,2.693-6.013,6.013C61.746,251.685,64.437,254.378,67.759,254.378z"/>
	<path style="fill:#333333;" d="M161.903,254.378h10.726c3.321,0,6.013-2.693,6.013-6.013c0-3.32-2.691-6.013-6.013-6.013h-10.726
		c-3.321,0-6.013,2.693-6.013,6.013C155.89,251.685,158.582,254.378,161.903,254.378z"/>
	<path style="fill:#333333;" d="M387.137,254.378h10.726c3.322,0,6.013-2.693,6.013-6.013c0-3.32-2.691-6.013-6.013-6.013h-10.726
		c-3.322,0-6.013,2.693-6.013,6.013C381.124,251.685,383.816,254.378,387.137,254.378z"/>
	<path style="fill:#333333;" d="M340.064,254.378h10.726c3.322,0,6.013-2.693,6.013-6.013c0-3.32-2.691-6.013-6.013-6.013h-10.726
		c-3.322,0-6.013,2.693-6.013,6.013C334.051,251.685,336.743,254.378,340.064,254.378z"/>
	<path style="fill:#333333;" d="M434.209,254.378h10.726c3.321,0,6.013-2.693,6.013-6.013c0-3.32-2.691-6.013-6.013-6.013h-10.726
		c-3.322,0-6.013,2.693-6.013,6.013C428.197,251.685,430.889,254.378,434.209,254.378z"/>
</g>
</svg>