<?xml version="1.0" encoding="iso-8859-1"?>
<!-- Uploaded to: SVG Repo, www.svgrepo.com, Generator: SVG Repo Mixer Tools -->
<svg height="800px" width="800px" version="1.1" id="Layer_1" xmlns="http://www.w3.org/2000/svg" xmlns:xlink="http://www.w3.org/1999/xlink" 
	 viewBox="0 0 512 512" xml:space="preserve">
<polygon style="fill:#DABA75;" points="426.71,64.529 512,149.819 483.372,178.447 471.304,179.138 471.304,190.515 
	442.676,219.143 357.386,133.853 "/>
<path style="fill:#9E5439;" d="M34.978,448.479c20.415,20.415,46.785,32.738,74.254,34.699c29.283,2.09,56.284-7.633,76.03-27.379
	c19.746-19.746,29.47-46.748,27.379-76.03c-1.574-22.046-9.828-43.381-23.577-61.501L451.246,56.083
	c4.888-4.888,4.888-12.813,0-17.7l-6.174-6.174c-4.888-4.888-12.813-4.888-17.7,0L165.189,294.393
	c-18.12-13.75-39.456-22.003-61.501-23.577c-29.283-2.09-56.284,7.633-76.03,27.379s-29.47,46.747-27.379,76.03
	C2.239,401.694,14.562,428.064,34.978,448.479z M58.85,424.606c-30.335-30.335-33.612-76.244-7.319-102.537
	c26.294-26.294,72.201-23.017,102.537,7.318c30.335,30.335,33.612,76.242,7.318,102.537
	C135.094,458.218,89.186,454.942,58.85,424.606z"/>
<path style="fill:#C3A458;" d="M423.98,152.956l4.882-4.882l-6.826-6.826c-3.333-3.334-3.333-8.736,0-12.068
	c3.333-3.331,8.736-3.331,12.068,0l6.826,6.826l4.882-4.882c3.333-3.331,8.736-3.331,12.067,0c3.333,3.334,3.333,8.736,0,12.068
	l-4.882,4.882l30.373,30.373l-12.067,12.07l-30.374-30.374l-4.883,4.883c-1.666,1.666-3.85,2.499-6.034,2.499
	c-2.185,0-4.368-0.833-6.034-2.499C420.648,161.691,420.648,156.289,423.98,152.956z"/>
<polygon style="fill:#F1CF91;" points="85.29,64.529 0,149.819 28.631,178.449 40.696,179.138 40.696,190.515 69.325,219.143 
	154.614,133.853 "/>
<path style="fill:#DABA75;" d="M511.721,374.225c2.09-29.283-7.633-56.284-27.379-76.03c-19.746-19.746-46.748-29.47-76.03-27.379
	c-22.046,1.574-43.381,9.828-61.501,23.577L84.628,32.211c-4.888-4.888-12.813-4.888-17.7,0l-6.174,6.174
	c-4.888,4.888-4.888,12.813,0,17.7l262.183,262.183c-13.75,18.12-22.003,39.456-23.577,61.501
	c-2.09,29.283,7.633,56.284,27.379,76.03c19.746,19.746,46.748,29.47,76.03,27.379c27.468-1.96,53.839-14.284,74.254-34.699
	C497.438,428.064,509.761,401.694,511.721,374.225z M350.613,431.924c-26.294-26.294-23.017-72.201,7.318-102.537
	c30.335-30.335,76.244-33.612,102.537-7.318c26.294,26.294,23.017,72.201-7.319,102.537
	C422.814,454.942,376.907,458.218,350.613,431.924z"/>
<path style="fill:#DD955F;" d="M88.02,152.956l-4.882-4.882l6.826-6.826c3.333-3.334,3.333-8.736,0-12.068
	c-3.333-3.331-8.736-3.331-12.068,0l-6.826,6.826l-4.882-4.882c-3.333-3.331-8.736-3.331-12.067,0
	c-3.333,3.334-3.333,8.736,0,12.068l4.882,4.882l-30.373,30.373l12.067,12.07l30.374-30.374l4.882,4.883
	c1.666,1.666,3.85,2.499,6.034,2.499c2.185,0,4.368-0.833,6.034-2.499C91.352,161.692,91.352,156.29,88.02,152.956z"/>
</svg>